<mxfile host="app.diagrams.net" agent="Mozilla/5.0 (Windows NT 10.0; Win64; x64) AppleWebKit/537.36 (KHTML, like Gecko) Chrome/137.0.0.0 Safari/537.36" version="27.0.9">
  <diagram name="Page-1" id="B8bBv2wPnKgHa1u2YiCP">
    <mxGraphModel dx="2916" dy="1137" grid="1" gridSize="10" guides="1" tooltips="1" connect="1" arrows="1" fold="1" page="1" pageScale="1" pageWidth="850" pageHeight="1100" math="0" shadow="0">
      <root>
        <mxCell id="0" />
        <mxCell id="1" parent="0" />
        <mxCell id="o6fUnKGNxynarfD-Ly8b-1" value="Preprocessing" style="swimlane;whiteSpace=wrap;html=1;" vertex="1" parent="1">
          <mxGeometry x="-380" y="220" width="310" height="450" as="geometry" />
        </mxCell>
        <mxCell id="o6fUnKGNxynarfD-Ly8b-19" style="edgeStyle=orthogonalEdgeStyle;rounded=0;orthogonalLoop=1;jettySize=auto;html=1;entryX=0.5;entryY=0;entryDx=0;entryDy=0;" edge="1" parent="o6fUnKGNxynarfD-Ly8b-1" source="o6fUnKGNxynarfD-Ly8b-4" target="o6fUnKGNxynarfD-Ly8b-6">
          <mxGeometry relative="1" as="geometry" />
        </mxCell>
        <mxCell id="o6fUnKGNxynarfD-Ly8b-4" value="feature_engineering.py" style="rounded=0;whiteSpace=wrap;html=1;" vertex="1" parent="o6fUnKGNxynarfD-Ly8b-1">
          <mxGeometry x="90" y="50" width="130" height="70" as="geometry" />
        </mxCell>
        <mxCell id="o6fUnKGNxynarfD-Ly8b-20" style="edgeStyle=orthogonalEdgeStyle;rounded=0;orthogonalLoop=1;jettySize=auto;html=1;entryX=0.5;entryY=0;entryDx=0;entryDy=0;" edge="1" parent="o6fUnKGNxynarfD-Ly8b-1" source="o6fUnKGNxynarfD-Ly8b-6" target="o6fUnKGNxynarfD-Ly8b-10">
          <mxGeometry relative="1" as="geometry" />
        </mxCell>
        <mxCell id="o6fUnKGNxynarfD-Ly8b-6" value="graphconstruction.py" style="rounded=0;whiteSpace=wrap;html=1;" vertex="1" parent="o6fUnKGNxynarfD-Ly8b-1">
          <mxGeometry x="90" y="180" width="130" height="70" as="geometry" />
        </mxCell>
        <mxCell id="o6fUnKGNxynarfD-Ly8b-10" value="traintestsplit.py" style="rounded=0;whiteSpace=wrap;html=1;" vertex="1" parent="o6fUnKGNxynarfD-Ly8b-1">
          <mxGeometry x="90" y="310" width="130" height="70" as="geometry" />
        </mxCell>
        <mxCell id="o6fUnKGNxynarfD-Ly8b-3" value="Postprocessing" style="swimlane;whiteSpace=wrap;html=1;" vertex="1" parent="1">
          <mxGeometry x="50" y="210" width="350" height="460" as="geometry" />
        </mxCell>
        <mxCell id="o6fUnKGNxynarfD-Ly8b-21" style="edgeStyle=orthogonalEdgeStyle;rounded=0;orthogonalLoop=1;jettySize=auto;html=1;entryX=0.5;entryY=0;entryDx=0;entryDy=0;" edge="1" parent="o6fUnKGNxynarfD-Ly8b-3" source="o6fUnKGNxynarfD-Ly8b-14" target="o6fUnKGNxynarfD-Ly8b-15">
          <mxGeometry relative="1" as="geometry" />
        </mxCell>
        <mxCell id="o6fUnKGNxynarfD-Ly8b-14" value="postprocessing.py" style="rounded=0;whiteSpace=wrap;html=1;" vertex="1" parent="o6fUnKGNxynarfD-Ly8b-3">
          <mxGeometry x="110" y="60" width="130" height="70" as="geometry" />
        </mxCell>
        <mxCell id="o6fUnKGNxynarfD-Ly8b-30" style="edgeStyle=orthogonalEdgeStyle;rounded=0;orthogonalLoop=1;jettySize=auto;html=1;" edge="1" parent="o6fUnKGNxynarfD-Ly8b-3" source="o6fUnKGNxynarfD-Ly8b-15">
          <mxGeometry relative="1" as="geometry">
            <mxPoint x="175" y="600" as="targetPoint" />
          </mxGeometry>
        </mxCell>
        <mxCell id="o6fUnKGNxynarfD-Ly8b-15" value="assignmentsolver.py" style="rounded=0;whiteSpace=wrap;html=1;" vertex="1" parent="o6fUnKGNxynarfD-Ly8b-3">
          <mxGeometry x="110" y="320" width="130" height="70" as="geometry" />
        </mxCell>
        <mxCell id="o6fUnKGNxynarfD-Ly8b-17" style="edgeStyle=orthogonalEdgeStyle;rounded=0;orthogonalLoop=1;jettySize=auto;html=1;entryX=0;entryY=0.5;entryDx=0;entryDy=0;" edge="1" parent="1" source="o6fUnKGNxynarfD-Ly8b-13" target="o6fUnKGNxynarfD-Ly8b-14">
          <mxGeometry relative="1" as="geometry" />
        </mxCell>
        <mxCell id="o6fUnKGNxynarfD-Ly8b-28" style="edgeStyle=orthogonalEdgeStyle;rounded=0;orthogonalLoop=1;jettySize=auto;html=1;entryX=0;entryY=0.5;entryDx=0;entryDy=0;" edge="1" parent="1" source="o6fUnKGNxynarfD-Ly8b-13" target="o6fUnKGNxynarfD-Ly8b-29">
          <mxGeometry relative="1" as="geometry">
            <mxPoint x="510" y="430" as="targetPoint" />
          </mxGeometry>
        </mxCell>
        <mxCell id="o6fUnKGNxynarfD-Ly8b-13" value="model.py" style="rounded=1;whiteSpace=wrap;html=1;" vertex="1" parent="1">
          <mxGeometry x="-70" y="400" width="120" height="60" as="geometry" />
        </mxCell>
        <mxCell id="o6fUnKGNxynarfD-Ly8b-16" style="edgeStyle=orthogonalEdgeStyle;rounded=0;orthogonalLoop=1;jettySize=auto;html=1;entryX=0;entryY=0.5;entryDx=0;entryDy=0;" edge="1" parent="1" source="o6fUnKGNxynarfD-Ly8b-10" target="o6fUnKGNxynarfD-Ly8b-13">
          <mxGeometry relative="1" as="geometry" />
        </mxCell>
        <mxCell id="o6fUnKGNxynarfD-Ly8b-23" value="UI" style="rounded=1;whiteSpace=wrap;html=1;" vertex="1" parent="1">
          <mxGeometry x="490" y="535" width="120" height="60" as="geometry" />
        </mxCell>
        <mxCell id="o6fUnKGNxynarfD-Ly8b-22" style="edgeStyle=orthogonalEdgeStyle;rounded=0;orthogonalLoop=1;jettySize=auto;html=1;" edge="1" parent="1" source="o6fUnKGNxynarfD-Ly8b-15" target="o6fUnKGNxynarfD-Ly8b-23">
          <mxGeometry relative="1" as="geometry">
            <mxPoint x="470" y="565" as="targetPoint" />
          </mxGeometry>
        </mxCell>
        <mxCell id="o6fUnKGNxynarfD-Ly8b-24" value="pipeline.py" style="swimlane;whiteSpace=wrap;html=1;" vertex="1" parent="1">
          <mxGeometry x="-420" y="170" width="880" height="600" as="geometry" />
        </mxCell>
        <mxCell id="o6fUnKGNxynarfD-Ly8b-25" value="data" style="rounded=1;whiteSpace=wrap;html=1;" vertex="1" parent="1">
          <mxGeometry x="-280" y="50" width="120" height="60" as="geometry" />
        </mxCell>
        <mxCell id="o6fUnKGNxynarfD-Ly8b-27" style="edgeStyle=orthogonalEdgeStyle;rounded=0;orthogonalLoop=1;jettySize=auto;html=1;entryX=0.227;entryY=-0.003;entryDx=0;entryDy=0;entryPerimeter=0;" edge="1" parent="1" source="o6fUnKGNxynarfD-Ly8b-25" target="o6fUnKGNxynarfD-Ly8b-24">
          <mxGeometry relative="1" as="geometry" />
        </mxCell>
        <mxCell id="o6fUnKGNxynarfD-Ly8b-29" value="modelmetric.py" style="rounded=1;whiteSpace=wrap;html=1;" vertex="1" parent="1">
          <mxGeometry x="480" y="400" width="120" height="60" as="geometry" />
        </mxCell>
        <mxCell id="o6fUnKGNxynarfD-Ly8b-31" value="solvermetric.py" style="rounded=1;whiteSpace=wrap;html=1;" vertex="1" parent="1">
          <mxGeometry x="165" y="810" width="120" height="60" as="geometry" />
        </mxCell>
      </root>
    </mxGraphModel>
  </diagram>
</mxfile>
